<?xml version="1.0" encoding="utf-8"?>
<svg width="170px" height="80px" viewBox="0 0 170 80" version="1.1" xmlns:xlink="http://www.w3.org/1999/xlink" xmlns="http://www.w3.org/2000/svg">
  <defs>
    <linearGradient gradientUnits="objectBoundingBox" x1="0.57586896" y1="0.563849" x2="0.9475652" y2="0.9607984" id="gradient_1">
      <stop offset="0%" stop-color="#FFFFFF" />
      <stop offset="100%" stop-color="#FFFFFF" stop-opacity="0" />
    </linearGradient>
    <linearGradient gradientUnits="objectBoundingBox" x1="0.5" y1="0" x2="0.48326588" y2="0.7343748" id="gradient_2">
      <stop offset="0%" stop-color="#FFFFFF" />
      <stop offset="100%" stop-color="#FFFFFF" stop-opacity="0" />
    </linearGradient>
    <filter filterUnits="userSpaceOnUse" color-interpolation-filters="sRGB" id="filter_1">
      <feFlood flood-opacity="0" result="BackgroundImageFix" />
      <feColorMatrix in="SourceAlpha" type="matrix" values="0 0 0 0 0 0 0 0 0 0 0 0 0 0 0 0 0 0 128 0" />
      <feOffset dx="0" dy="1" />
      <feGaussianBlur stdDeviation="0" />
      <feColorMatrix type="matrix" values="0 0 0 0 0.23137255 0 0 0 0 0.20784314 0 0 0 0 0.8901961 0 0 0 1 0" />
      <feBlend mode="normal" in2="BackgroundImageFix" result="effect0_dropShadow" />
      <feBlend mode="normal" in="SourceGraphic" in2="effect0_dropShadow" result="shape" />
    </filter>
    <filter filterUnits="userSpaceOnUse" color-interpolation-filters="sRGB" id="filter_2">
      <feFlood flood-opacity="0" result="BackgroundImageFix" />
      <feColorMatrix in="SourceAlpha" type="matrix" values="0 0 0 0 0 0 0 0 0 0 0 0 0 0 0 0 0 0 128 0" />
      <feOffset dx="0" dy="2" />
      <feGaussianBlur stdDeviation="2" />
      <feColorMatrix type="matrix" values="0 0 0 0 0.39215687 0 0 0 0 0.39215687 0 0 0 0 0.39215687 0 0 0 0.49803922 0" />
      <feBlend mode="normal" in2="BackgroundImageFix" result="effect0_dropShadow" />
      <feBlend mode="normal" in="SourceGraphic" in2="effect0_dropShadow" result="shape" />
    </filter>
    <filter filterUnits="userSpaceOnUse" color-interpolation-filters="sRGB" id="filter_3">
      <feFlood flood-opacity="0" result="BackgroundImageFix" />
      <feColorMatrix in="SourceAlpha" type="matrix" values="0 0 0 0 0 0 0 0 0 0 0 0 0 0 0 0 0 0 128 0" />
      <feOffset dx="0" dy="2" />
      <feGaussianBlur stdDeviation="2" />
      <feColorMatrix type="matrix" values="0 0 0 0 0.5647059 0 0 0 0 0.93333334 0 0 0 0 1 0 0 0 0.29803923 0" />
      <feBlend mode="normal" in2="BackgroundImageFix" result="effect0_dropShadow" />
      <feBlend mode="normal" in="SourceGraphic" in2="effect0_dropShadow" result="shape" />
    </filter>
    <path d="M170 0L170 0L170 80L0 80L0 0L170 0Z" id="path_1" />
    <path d="M28 0L28 0L28 16L0 16L0 0L28 0Z" id="path_2" />
    <path d="M12.1069 0L12.1069 0L12.1069 10.8325L0 10.8325L0 0L12.1069 0Z" id="path_3" />
    <clipPath id="clip_1">
      <use xlink:href="#path_1" clip-rule="evenodd" fill-rule="evenodd" />
    </clipPath>
    <clipPath id="clip_2">
      <use xlink:href="#path_2" clip-rule="evenodd" fill-rule="evenodd" />
    </clipPath>
    <clipPath id="clip_3">
      <use xlink:href="#path_3" clip-rule="evenodd" fill-rule="evenodd" />
    </clipPath>
  </defs>
  <g id="next.js-illustration">
    <path d="M170 0L170 0L170 80L0 80L0 0L170 0Z" id="next.js-illustration" fill="#FFFFFF" stroke="none" />
    <g id="next.js-illustration" transform="translate(20 13)" clip-path="url(#clip_1)">
      <g id="nextjs">
        <path d="M28 0L28 0L28 16L0 16L0 0L28 0Z" id="nextjs" fill="none" stroke="none" transform="translate(19.303955 9.324921)" />
        <g id="Mask-Group" clip-path="url(#clip_2)" transform="translate(19.303955 9.324921), translate(0.34545898 0.037109375)">
          <path d="M12.0518 4.17379L12.5989 4.17379L15.0234 7.45966L17.5015 4.17379L20.8722 0L15.3345 7.80495L18.1881 11.6454L17.6195 11.6454L15.0234 8.1503L12.4166 11.6454L11.8587 11.6454L14.7338 7.80495L12.0518 4.17379ZM0 4.17351L0.590033 4.17351L8.72626 16.0026L5.36393 11.6451L0.493485 4.73859L0.472028 11.6451L0 11.6451L0 4.17351ZM6.4411 4.17378L11.5904 4.17378L11.5904 4.57143L6.91312 4.57143L6.91312 7.56426L11.3115 7.56426L11.3115 7.96195L6.91312 7.96195L6.91312 11.2478L11.6441 11.2478L11.6441 11.6454L6.4411 11.6454L6.4411 4.17378ZM18.3919 4.57143L18.3919 4.17378L24.2601 4.17378L24.2601 4.57143L21.5566 4.57143L21.5566 11.6454L21.0846 11.6454L21.0846 4.57143L18.3919 4.57143ZM26.6654 11.1472C26.298 11.1472 26.0511 10.963 26.0327 10.6748L26.2876 10.6748C26.3094 10.8278 26.4633 10.925 26.6848 10.925C26.8915 10.925 27.0431 10.8211 27.0431 10.6781C27.0431 10.5553 26.9466 10.4815 26.7273 10.4313L26.5138 10.3811C26.2142 10.3129 26.0775 10.1722 26.0775 9.93538C26.0775 9.64836 26.3186 9.45735 26.6802 9.45735C27.0166 9.45735 27.2623 9.64836 27.2772 9.91977L27.027 9.91977C27.0028 9.77123 26.8697 9.6785 26.6768 9.6785C26.4736 9.6785 26.3381 9.77343 26.3381 9.91864C26.3381 10.0336 26.4254 10.0996 26.6412 10.1487L26.8238 10.1923C27.1636 10.2693 27.3037 10.4034 27.3037 10.6457C27.3037 10.954 27.058 11.1472 26.6654 11.1472ZM25.1842 11.1472C24.8846 11.1472 24.6791 10.9663 24.6791 10.6893L24.9317 10.6893C24.9351 10.8222 25.035 10.9115 25.182 10.9115C25.3461 10.9115 25.4391 10.8155 25.4391 10.6357L25.4391 9.49641L25.6963 9.49641L25.6963 10.6368C25.6963 10.9607 25.5034 11.1472 25.1842 11.1472ZM24.3841 10.9607C24.3841 11.0546 24.3128 11.1271 24.2153 11.1271C24.1188 11.1271 24.0465 11.0546 24.0465 10.9607C24.0465 10.8669 24.1188 10.7943 24.2153 10.7943C24.3128 10.7943 24.3841 10.8669 24.3841 10.9607Z" id="Group" fill="#CDD6E3" fill-opacity="0.5019608" fill-rule="evenodd" stroke="none" />
        </g>
      </g>
      <g id="nextjs Copy">
        <path d="M28 0L28 0L28 16L0 16L0 0L28 0Z" id="nextjs-Copy" fill="none" stroke="none" transform="translate(57.303955 9.324921)" />
        <g id="Mask-Group" clip-path="url(#clip_2)" transform="translate(57.303955 9.324921), translate(0.34545898 0.037109375)">
          <path d="M12.0518 4.17379L12.5989 4.17379L15.0234 7.45966L17.5015 4.17379L20.8722 0L15.3345 7.80495L18.1881 11.6454L17.6195 11.6454L15.0234 8.1503L12.4166 11.6454L11.8587 11.6454L14.7338 7.80495L12.0518 4.17379ZM0 4.17351L0.590033 4.17351L8.72626 16.0026L5.36393 11.6451L0.493485 4.73859L0.472028 11.6451L0 11.6451L0 4.17351ZM6.4411 4.17378L11.5904 4.17378L11.5904 4.57143L6.91312 4.57143L6.91312 7.56426L11.3115 7.56426L11.3115 7.96195L6.91312 7.96195L6.91312 11.2478L11.6441 11.2478L11.6441 11.6454L6.4411 11.6454L6.4411 4.17378ZM18.392 4.57143L18.392 4.17378L24.2601 4.17378L24.2601 4.57143L21.5567 4.57143L21.5567 11.6454L21.0846 11.6454L21.0846 4.57143L18.392 4.57143ZM26.6654 11.1472C26.298 11.1472 26.0511 10.963 26.0327 10.6748L26.2876 10.6748C26.3094 10.8278 26.4633 10.925 26.6848 10.925C26.8915 10.925 27.0431 10.8211 27.0431 10.6781C27.0431 10.5553 26.9466 10.4815 26.7273 10.4313L26.5138 10.3811C26.2142 10.3129 26.0775 10.1722 26.0775 9.93538C26.0775 9.64836 26.3186 9.45735 26.6802 9.45735C27.0166 9.45735 27.2623 9.64836 27.2772 9.91977L27.027 9.91977C27.0028 9.77123 26.8697 9.6785 26.6768 9.6785C26.4736 9.6785 26.3381 9.77343 26.3381 9.91864C26.3381 10.0336 26.4254 10.0996 26.6412 10.1487L26.8238 10.1923C27.1636 10.2693 27.3037 10.4034 27.3037 10.6457C27.3037 10.954 27.058 11.1472 26.6654 11.1472ZM25.1842 11.1472C24.8846 11.1472 24.6791 10.9663 24.6791 10.6893L24.9317 10.6893C24.9351 10.8222 25.035 10.9115 25.182 10.9115C25.3461 10.9115 25.4391 10.8155 25.4391 10.6357L25.4391 9.49641L25.6963 9.49641L25.6963 10.6368C25.6963 10.9607 25.5034 11.1472 25.1842 11.1472ZM24.3841 10.9607C24.3841 11.0546 24.3128 11.1271 24.2153 11.1271C24.1188 11.1271 24.0465 11.0546 24.0465 10.9607C24.0465 10.8669 24.1188 10.7943 24.2153 10.7943C24.3128 10.7943 24.3841 10.8669 24.3841 10.9607Z" id="Group" fill="#CDD6E3" fill-opacity="0.5019608" fill-rule="evenodd" stroke="none" />
        </g>
      </g>
      <g id="nextjs Copy 2">
        <path d="M28 0L28 0L28 16L0 16L0 0L28 0Z" id="nextjs-Copy-2" fill="none" stroke="none" transform="translate(95.303955 9.324921)" />
        <g id="Mask-Group" clip-path="url(#clip_2)" transform="translate(95.303955 9.324921), translate(0.34545898 0.037109375)">
          <path d="M12.0518 4.17379L12.599 4.17379L15.0235 7.45966L17.5016 4.17379L20.8723 0L15.3346 7.80495L18.1882 11.6454L17.6196 11.6454L15.0235 8.1503L12.4166 11.6454L11.8588 11.6454L14.7338 7.80495L12.0518 4.17379ZM0 4.17351L0.590033 4.17351L8.72626 16.0026L5.36393 11.6451L0.493485 4.73859L0.472028 11.6451L0 11.6451L0 4.17351ZM6.44116 4.17378L11.5905 4.17378L11.5905 4.57143L6.91318 4.57143L6.91318 7.56426L11.3116 7.56426L11.3116 7.96195L6.91318 7.96195L6.91318 11.2478L11.6442 11.2478L11.6442 11.6454L6.44116 11.6454L6.44116 4.17378ZM18.392 4.57143L18.392 4.17378L24.2601 4.17378L24.2601 4.57143L21.5567 4.57143L21.5567 11.6454L21.0846 11.6454L21.0846 4.57143L18.392 4.57143ZM26.6654 11.1472C26.298 11.1472 26.0511 10.963 26.0327 10.6748L26.2876 10.6748C26.3094 10.8278 26.4633 10.925 26.6848 10.925C26.8915 10.925 27.0431 10.8211 27.0431 10.6781C27.0431 10.5553 26.9466 10.4815 26.7273 10.4313L26.5138 10.3811C26.2142 10.3129 26.0775 10.1722 26.0775 9.93538C26.0775 9.64836 26.3186 9.45735 26.6802 9.45735C27.0166 9.45735 27.2623 9.64836 27.2772 9.91977L27.027 9.91977C27.0028 9.77123 26.8697 9.6785 26.6768 9.6785C26.4736 9.6785 26.3381 9.77343 26.3381 9.91864C26.3381 10.0336 26.4254 10.0996 26.6412 10.1487L26.8238 10.1923C27.1636 10.2693 27.3037 10.4034 27.3037 10.6457C27.3037 10.954 27.058 11.1472 26.6654 11.1472ZM25.1842 11.1472C24.8846 11.1472 24.6791 10.9663 24.6791 10.6893L24.9317 10.6893C24.9351 10.8222 25.035 10.9115 25.182 10.9115C25.3461 10.9115 25.4391 10.8155 25.4391 10.6357L25.4391 9.49641L25.6963 9.49641L25.6963 10.6368C25.6963 10.9607 25.5034 11.1472 25.1842 11.1472ZM24.3841 10.9607C24.3841 11.0546 24.3128 11.1271 24.2153 11.1271C24.1188 11.1271 24.0465 11.0546 24.0465 10.9607C24.0465 10.8669 24.1188 10.7943 24.2153 10.7943C24.3128 10.7943 24.3841 10.8669 24.3841 10.9607Z" id="Group" fill="#CDD6E3" fill-opacity="0.5019608" fill-rule="evenodd" stroke="none" />
        </g>
      </g>
      <g id="Group" transform="translate(19.303955 25.32492)">
        <g id="nextjs Copy 3">
          <path d="M28 0L28 0L28 16L0 16L0 0L28 0Z" id="nextjs-Copy-3" fill="none" stroke="none" />
          <g id="Mask-Group" transform="translate(0.34545898 0.037109375)" clip-path="url(#clip_2)">
            <path d="M12.0518 4.17379L12.5989 4.17379L15.0234 7.45966L17.5015 4.17379L20.8722 0L15.3345 7.80495L18.1881 11.6454L17.6195 11.6454L15.0234 8.1503L12.4166 11.6454L11.8587 11.6454L14.7338 7.80495L12.0518 4.17379ZM0 4.17351L0.590033 4.17351L8.72626 16.0026L5.36393 11.6451L0.493485 4.73859L0.472028 11.6451L0 11.6451L0 4.17351ZM6.4411 4.17378L11.5904 4.17378L11.5904 4.57143L6.91312 4.57143L6.91312 7.56426L11.3115 7.56426L11.3115 7.96195L6.91312 7.96195L6.91312 11.2478L11.6441 11.2478L11.6441 11.6454L6.4411 11.6454L6.4411 4.17378ZM18.3919 4.57143L18.3919 4.17378L24.2601 4.17378L24.2601 4.57143L21.5566 4.57143L21.5566 11.6454L21.0846 11.6454L21.0846 4.57143L18.3919 4.57143ZM26.6654 11.1472C26.298 11.1472 26.0511 10.963 26.0327 10.6748L26.2876 10.6748C26.3094 10.8278 26.4633 10.925 26.6848 10.925C26.8915 10.925 27.0431 10.8211 27.0431 10.6781C27.0431 10.5553 26.9466 10.4815 26.7273 10.4313L26.5138 10.3811C26.2142 10.3129 26.0775 10.1722 26.0775 9.93538C26.0775 9.64836 26.3186 9.45735 26.6802 9.45735C27.0166 9.45735 27.2623 9.64836 27.2772 9.91977L27.027 9.91977C27.0028 9.77123 26.8697 9.6785 26.6768 9.6785C26.4736 9.6785 26.3381 9.77343 26.3381 9.91864C26.3381 10.0336 26.4254 10.0996 26.6412 10.1487L26.8238 10.1923C27.1636 10.2693 27.3037 10.4034 27.3037 10.6457C27.3037 10.954 27.058 11.1472 26.6654 11.1472ZM25.1842 11.1472C24.8846 11.1472 24.6791 10.9663 24.6791 10.6893L24.9317 10.6893C24.9351 10.8222 25.035 10.9115 25.182 10.9115C25.3461 10.9115 25.4391 10.8155 25.4391 10.6357L25.4391 9.49641L25.6963 9.49641L25.6963 10.6368C25.6963 10.9607 25.5034 11.1472 25.1842 11.1472ZM24.3841 10.9607C24.3841 11.0546 24.3128 11.1271 24.2153 11.1271C24.1188 11.1271 24.0465 11.0546 24.0465 10.9607C24.0465 10.8669 24.1188 10.7943 24.2153 10.7943C24.3128 10.7943 24.3841 10.8669 24.3841 10.9607Z" id="Group" fill="#CDD6E3" fill-opacity="0.5019608" fill-rule="evenodd" stroke="none" />
          </g>
        </g>
        <g id="nextjs Copy 4">
          <path d="M28 0L28 0L28 16L0 16L0 0L28 0Z" id="nextjs-Copy-4" fill="none" stroke="none" transform="translate(38 0)" />
          <g id="Mask-Group" clip-path="url(#clip_2)" transform="translate(38 0), translate(0.34545898 0.037109375)">
            <path d="M12.0518 4.17379L12.5989 4.17379L15.0234 7.45966L17.5015 4.17379L20.8722 0L15.3345 7.80495L18.1881 11.6454L17.6195 11.6454L15.0234 8.1503L12.4166 11.6454L11.8587 11.6454L14.7338 7.80495L12.0518 4.17379ZM0 4.17351L0.590033 4.17351L8.72626 16.0026L5.36393 11.6451L0.493485 4.73859L0.472028 11.6451L0 11.6451L0 4.17351ZM6.4411 4.17378L11.5904 4.17378L11.5904 4.57143L6.91312 4.57143L6.91312 7.56426L11.3115 7.56426L11.3115 7.96195L6.91312 7.96195L6.91312 11.2478L11.6441 11.2478L11.6441 11.6454L6.4411 11.6454L6.4411 4.17378ZM18.392 4.57143L18.392 4.17378L24.2601 4.17378L24.2601 4.57143L21.5567 4.57143L21.5567 11.6454L21.0846 11.6454L21.0846 4.57143L18.392 4.57143ZM26.6654 11.1472C26.298 11.1472 26.0511 10.963 26.0327 10.6748L26.2876 10.6748C26.3094 10.8278 26.4633 10.925 26.6848 10.925C26.8915 10.925 27.0431 10.8211 27.0431 10.6781C27.0431 10.5553 26.9466 10.4815 26.7273 10.4313L26.5138 10.3811C26.2142 10.3129 26.0775 10.1722 26.0775 9.93538C26.0775 9.64836 26.3186 9.45735 26.6802 9.45735C27.0166 9.45735 27.2623 9.64836 27.2772 9.91977L27.027 9.91977C27.0028 9.77123 26.8697 9.6785 26.6768 9.6785C26.4736 9.6785 26.3381 9.77343 26.3381 9.91864C26.3381 10.0336 26.4254 10.0996 26.6412 10.1487L26.8238 10.1923C27.1636 10.2693 27.3037 10.4034 27.3037 10.6457C27.3037 10.954 27.058 11.1472 26.6654 11.1472ZM25.1842 11.1472C24.8846 11.1472 24.6791 10.9663 24.6791 10.6893L24.9317 10.6893C24.9351 10.8222 25.035 10.9115 25.182 10.9115C25.3461 10.9115 25.4391 10.8155 25.4391 10.6357L25.4391 9.49641L25.6963 9.49641L25.6963 10.6368C25.6963 10.9607 25.5034 11.1472 25.1842 11.1472ZM24.3841 10.9607C24.3841 11.0546 24.3128 11.1271 24.2153 11.1271C24.1188 11.1271 24.0465 11.0546 24.0465 10.9607C24.0465 10.8669 24.1188 10.7943 24.2153 10.7943C24.3128 10.7943 24.3841 10.8669 24.3841 10.9607Z" id="Group" fill="#CDD6E3" fill-opacity="0.5019608" fill-rule="evenodd" stroke="none" />
          </g>
        </g>
        <g id="nextjs Copy 5">
          <path d="M28 0L28 0L28 16L0 16L0 0L28 0Z" id="nextjs-Copy-5" fill="none" stroke="none" transform="translate(76 0)" />
          <g id="Mask-Group" clip-path="url(#clip_2)" transform="translate(76 0), translate(0.34545898 0.037109375)">
            <path d="M12.0518 4.17379L12.599 4.17379L15.0235 7.45966L17.5016 4.17379L20.8723 0L15.3346 7.80495L18.1882 11.6454L17.6196 11.6454L15.0235 8.1503L12.4166 11.6454L11.8588 11.6454L14.7338 7.80495L12.0518 4.17379ZM0 4.17351L0.590033 4.17351L8.72626 16.0026L5.36393 11.6451L0.493485 4.73859L0.472028 11.6451L0 11.6451L0 4.17351ZM6.44116 4.17378L11.5905 4.17378L11.5905 4.57143L6.91318 4.57143L6.91318 7.56426L11.3116 7.56426L11.3116 7.96195L6.91318 7.96195L6.91318 11.2478L11.6442 11.2478L11.6442 11.6454L6.44116 11.6454L6.44116 4.17378ZM18.392 4.57143L18.392 4.17378L24.2601 4.17378L24.2601 4.57143L21.5567 4.57143L21.5567 11.6454L21.0846 11.6454L21.0846 4.57143L18.392 4.57143ZM26.6654 11.1472C26.298 11.1472 26.0511 10.963 26.0327 10.6748L26.2876 10.6748C26.3094 10.8278 26.4633 10.925 26.6848 10.925C26.8915 10.925 27.0431 10.8211 27.0431 10.6781C27.0431 10.5553 26.9466 10.4815 26.7273 10.4313L26.5138 10.3811C26.2142 10.3129 26.0775 10.1722 26.0775 9.93538C26.0775 9.64836 26.3186 9.45735 26.6802 9.45735C27.0166 9.45735 27.2623 9.64836 27.2772 9.91977L27.027 9.91977C27.0028 9.77123 26.8697 9.6785 26.6768 9.6785C26.4736 9.6785 26.3381 9.77343 26.3381 9.91864C26.3381 10.0336 26.4254 10.0996 26.6412 10.1487L26.8238 10.1923C27.1636 10.2693 27.3037 10.4034 27.3037 10.6457C27.3037 10.954 27.058 11.1472 26.6654 11.1472ZM25.1842 11.1472C24.8846 11.1472 24.6791 10.9663 24.6791 10.6893L24.9317 10.6893C24.9351 10.8222 25.035 10.9115 25.182 10.9115C25.3461 10.9115 25.4391 10.8155 25.4391 10.6357L25.4391 9.49641L25.6963 9.49641L25.6963 10.6368C25.6963 10.9607 25.5034 11.1472 25.1842 11.1472ZM24.3841 10.9607C24.3841 11.0546 24.3128 11.1271 24.2153 11.1271C24.1188 11.1271 24.0465 11.0546 24.0465 10.9607C24.0465 10.8669 24.1188 10.7943 24.2153 10.7943C24.3128 10.7943 24.3841 10.8669 24.3841 10.9607Z" id="Group" fill="#CDD6E3" fill-opacity="0.5019608" fill-rule="evenodd" stroke="none" />
          </g>
        </g>
      </g>
      <g id="Next.js-shadow" transform="translate(28.303955 11.324921)">
        <g transform="translate(0, 6.036932)" fill="#E8EAF9" stroke="none" id="Next.js">
          <path d="M16.788 6.03693L16.788 24.2188L13.4677 24.2188L5.55753 12.7752L5.42436 12.7752L5.42436 24.2188L1.58026 24.2188L1.58026 6.03693L4.95384 6.03693L12.8018 17.4716L12.9616 17.4716L12.9616 6.03693L16.788 6.03693ZM26.1009 24.4851Q24.0057 24.4851 22.4876 23.6284Q20.9695 22.7717 20.1527 21.1958Q19.3359 19.62 19.3359 17.4627Q19.3359 15.3587 20.1527 13.7695Q20.9695 12.1804 22.4565 11.2926Q23.9435 10.4048 25.9499 10.4048Q27.7521 10.4048 29.2037 11.1683Q30.6552 11.9318 31.5075 13.4721Q32.3597 15.0124 32.3597 17.3295L32.3597 18.3683L23.0735 18.3683L23.0735 18.3771Q23.0735 19.9041 23.908 20.783Q24.7425 21.6619 26.163 21.6619Q27.1129 21.6619 27.8054 21.2624Q28.4979 20.8629 28.782 20.0817L32.2798 20.3125Q31.8803 22.2124 30.2557 23.3487Q28.631 24.4851 26.1009 24.4851ZM23.0735 16.0245L28.7997 16.0245Q28.7908 14.8082 28.0185 14.0181Q27.2461 13.228 26.0121 13.228Q24.7514 13.228 23.9435 14.0447Q23.1357 14.8615 23.0735 16.0245ZM37.7575 10.5824L40.261 15.3498L42.8267 10.5824L46.7063 10.5824L42.7557 17.4006L46.8129 24.2188L42.951 24.2188L40.261 19.5046L37.6154 24.2188L33.7092 24.2188L37.7575 17.4006L33.8512 10.5824L37.7575 10.5824ZM56.1967 10.5824L56.1967 13.4233L53.631 13.4233L53.631 20.0284Q53.631 20.8097 53.9861 21.0849Q54.3413 21.3601 54.9094 21.3601Q55.1758 21.3601 55.4421 21.3113Q55.7085 21.2624 55.8505 21.2358L56.4453 24.0501Q56.1612 24.1388 55.6463 24.2587Q55.1314 24.3786 54.3945 24.4052Q52.3349 24.494 51.0875 23.513Q49.8402 22.532 49.8491 20.5256L49.8491 13.4233L47.9847 13.4233L47.9847 10.5824L49.8491 10.5824L49.8491 7.31534L53.631 7.31534L53.631 10.5824L56.1967 10.5824ZM60.8665 24.4496Q59.9876 24.4496 59.3572 23.8281Q58.7269 23.2067 58.7358 22.3189Q58.7269 21.4489 59.3572 20.8274Q59.9876 20.206 60.8665 20.206Q61.7188 20.206 62.3535 20.8274Q62.9883 21.4489 62.9972 22.3189Q62.9883 23.2067 62.3535 23.8281Q61.7187 24.4496 60.8665 24.4496ZM66.0955 10.5824L69.8775 10.5824L69.8775 24.8935Q69.8775 27.2638 68.5014 28.2981Q67.1254 29.3324 64.7106 29.3324Q64.5153 29.3324 64.3333 29.3279Q64.1513 29.3235 63.9471 29.3146L63.9471 26.3583Q64.098 26.3672 64.2134 26.3716Q64.3288 26.3761 64.4442 26.3761Q65.3587 26.3761 65.7271 25.9899Q66.0955 25.6037 66.0955 24.8313L66.0955 10.5824ZM67.9776 8.82457Q67.1431 8.82458 66.5394 8.26083Q65.9357 7.69709 65.9357 6.90696Q65.9357 6.11683 66.5394 5.55753Q67.1431 4.99822 67.9776 4.99822Q68.821 4.99822 69.4247 5.55753Q70.0284 6.11683 70.0284 6.90696Q70.0284 7.69709 69.4247 8.26083Q68.821 8.82458 67.9776 8.82457ZM84.2418 14.4709L80.7795 14.6839Q80.6374 14.027 80.0604 13.5565Q79.4833 13.0859 78.4979 13.0859Q77.619 13.0859 77.0108 13.4544Q76.4027 13.8228 76.4116 14.4354Q76.4027 14.9236 76.7978 15.261Q77.1928 15.5984 78.1427 15.8026L80.6108 16.2997Q84.5437 17.1076 84.5526 19.9929Q84.5526 21.3335 83.7669 22.3455Q82.9812 23.3576 81.614 23.9213Q80.2468 24.4851 78.4801 24.4851Q75.7724 24.4851 74.1655 23.3532Q72.5586 22.2212 72.2923 20.2681L76.0121 20.0728Q76.1896 20.9073 76.8333 21.3335Q77.4769 21.7596 78.489 21.7596Q79.4833 21.7596 80.0914 21.369Q80.6996 20.9783 80.7084 20.3746Q80.6818 19.3626 78.9595 19.0163L76.598 18.5458Q72.6385 17.7557 72.6562 14.6484Q72.6474 12.6776 74.2321 11.5412Q75.8168 10.4048 78.4357 10.4048Q81.0192 10.4048 82.5062 11.4968Q83.9932 12.5888 84.2418 14.4709Z" />
        </g>
      </g>
      <g id="Next.js" transform="translate(28.303955 9.324921)">
        <g transform="translate(0, 6.036932)" id="Next.js" filter="url(#filter_1)">
          <path d="M16.788 6.03693L16.788 24.2188L13.4677 24.2188L5.55753 12.7752L5.42436 12.7752L5.42436 24.2188L1.58026 24.2188L1.58026 6.03693L4.95384 6.03693L12.8018 17.4716L12.9616 17.4716L12.9616 6.03693L16.788 6.03693ZM26.1009 24.4851Q24.0057 24.4851 22.4876 23.6284Q20.9695 22.7717 20.1527 21.1958Q19.3359 19.62 19.3359 17.4627Q19.3359 15.3587 20.1527 13.7695Q20.9695 12.1804 22.4565 11.2926Q23.9435 10.4048 25.9499 10.4048Q27.7521 10.4048 29.2037 11.1683Q30.6552 11.9318 31.5075 13.4721Q32.3597 15.0124 32.3597 17.3295L32.3597 18.3683L23.0735 18.3683L23.0735 18.3771Q23.0735 19.9041 23.908 20.783Q24.7425 21.6619 26.163 21.6619Q27.1129 21.6619 27.8054 21.2624Q28.4979 20.8629 28.782 20.0817L32.2798 20.3125Q31.8803 22.2124 30.2557 23.3487Q28.631 24.4851 26.1009 24.4851ZM23.0735 16.0245L28.7997 16.0245Q28.7908 14.8082 28.0185 14.0181Q27.2461 13.228 26.0121 13.228Q24.7514 13.228 23.9435 14.0447Q23.1357 14.8615 23.0735 16.0245ZM37.7575 10.5824L40.261 15.3498L42.8267 10.5824L46.7063 10.5824L42.7557 17.4006L46.8129 24.2188L42.951 24.2188L40.261 19.5046L37.6154 24.2188L33.7092 24.2188L37.7575 17.4006L33.8512 10.5824L37.7575 10.5824ZM56.1967 10.5824L56.1967 13.4233L53.631 13.4233L53.631 20.0284Q53.631 20.8097 53.9861 21.0849Q54.3413 21.3601 54.9094 21.3601Q55.1758 21.3601 55.4421 21.3113Q55.7085 21.2624 55.8505 21.2358L56.4453 24.0501Q56.1612 24.1388 55.6463 24.2587Q55.1314 24.3786 54.3945 24.4052Q52.3349 24.494 51.0875 23.513Q49.8402 22.532 49.8491 20.5256L49.8491 13.4233L47.9847 13.4233L47.9847 10.5824L49.8491 10.5824L49.8491 7.31534L53.631 7.31534L53.631 10.5824L56.1967 10.5824ZM60.8665 24.4496Q59.9876 24.4496 59.3572 23.8281Q58.7269 23.2067 58.7358 22.3189Q58.7269 21.4489 59.3572 20.8274Q59.9876 20.206 60.8665 20.206Q61.7188 20.206 62.3535 20.8274Q62.9883 21.4489 62.9972 22.3189Q62.9883 23.2067 62.3535 23.8281Q61.7187 24.4496 60.8665 24.4496ZM66.0955 10.5824L69.8775 10.5824L69.8775 24.8935Q69.8775 27.2638 68.5014 28.2981Q67.1254 29.3324 64.7106 29.3324Q64.5153 29.3324 64.3333 29.3279Q64.1513 29.3235 63.9471 29.3146L63.9471 26.3583Q64.098 26.3672 64.2134 26.3716Q64.3288 26.3761 64.4442 26.3761Q65.3587 26.3761 65.7271 25.9899Q66.0955 25.6037 66.0955 24.8313L66.0955 10.5824ZM67.9776 8.82457Q67.1431 8.82458 66.5394 8.26083Q65.9357 7.69709 65.9357 6.90696Q65.9357 6.11683 66.5394 5.55753Q67.1431 4.99822 67.9776 4.99822Q68.821 4.99822 69.4247 5.55753Q70.0284 6.11683 70.0284 6.90696Q70.0284 7.69709 69.4247 8.26083Q68.821 8.82458 67.9776 8.82457ZM84.2418 14.4709L80.7795 14.6839Q80.6374 14.027 80.0604 13.5565Q79.4833 13.0859 78.4979 13.0859Q77.619 13.0859 77.0108 13.4544Q76.4027 13.8228 76.4116 14.4354Q76.4027 14.9236 76.7978 15.261Q77.1928 15.5984 78.1427 15.8026L80.6108 16.2997Q84.5437 17.1076 84.5526 19.9929Q84.5526 21.3335 83.7669 22.3455Q82.9812 23.3576 81.614 23.9213Q80.2468 24.4851 78.4801 24.4851Q75.7724 24.4851 74.1655 23.3532Q72.5586 22.2212 72.2923 20.2681L76.0121 20.0728Q76.1896 20.9073 76.8333 21.3335Q77.4769 21.7596 78.489 21.7596Q79.4833 21.7596 80.0914 21.369Q80.6996 20.9783 80.7084 20.3746Q80.6818 19.3626 78.9595 19.0163L76.598 18.5458Q72.6385 17.7557 72.6562 14.6484Q72.6474 12.6776 74.2321 11.5412Q75.8168 10.4048 78.4357 10.4048Q81.0192 10.4048 82.5062 11.4968Q83.9932 12.5888 84.2418 14.4709Z" />
        </g>
      </g>
      <path d="M0 40.225C0 32.921 5.92103 27 13.225 27C20.5289 27 26.45 32.921 26.45 40.225C26.45 47.5289 20.5289 53.45 13.225 53.45C5.92103 53.45 0 47.5289 0 40.225Z" id="Oval" fill="#FFFFFF" fill-rule="evenodd" stroke="none" filter="url(#filter_2)" />
      <g id="nextjs-sticker" transform="translate(1.5030518 28.455109)">
        <g id="Mask-Group">
          <g id="Group">
            <path d="M14.294 23.4071C20.6856 22.0485 24.7657 15.7658 23.4071 9.37411C22.0485 2.98249 15.7658 -1.09761 9.37415 0.260981C2.9825 1.61957 -1.09757 7.90234 0.260991 14.294C1.6196 20.6856 7.90238 24.7657 14.294 23.4071L14.294 23.4071Z" id="Shape" fill="#000000" stroke="none" />
            <path d="M21.3317 18.8899L8.16796 7.77492L6.22089 8.18878L8.18801 17.4434L9.74567 17.1123L8.19901 9.83581L20.3091 20.0917C20.6768 19.7137 21.0184 19.312 21.3317 18.8899L21.3317 18.8899Z" id="Shape" fill="url(#gradient_1)" stroke="none" />
            <path d="M15.608 6.19348L14.0649 6.52148L16.0328 15.7799L17.5759 15.4519L15.608 6.19348L15.608 6.19348Z" id="Shape" fill="url(#gradient_2)" stroke="none" />
          </g>
        </g>
      </g>
      <path d="M111.45 8.42701C111.45 3.7729 115.223 0 119.877 0C124.531 0 128.304 3.7729 128.304 8.42701C128.304 13.0811 124.531 16.854 119.877 16.854C115.223 16.854 111.45 13.0811 111.45 8.42701Z" id="Oval-Copy" fill="#FFFFFF" fill-rule="evenodd" stroke="none" filter="url(#filter_3)" />
      <g id="nextjs-sticker-Copy" transform="translate(112.407715 0.9272003)">
        <g id="Mask-Group">
          <g id="Group">
            <path d="M9.10812 14.915C13.1809 14.0493 15.7807 10.0459 14.915 5.97317C14.0493 1.90044 10.046 -0.699393 5.9732 0.166297C1.90044 1.03199 -0.699373 5.03537 0.166303 9.1081C1.03201 13.1809 5.03539 15.7807 9.10812 14.915L9.10812 14.915Z" id="Shape" fill="#00D8FF" fill-opacity="0.12941177" stroke="none" />
          </g>
        </g>
        <g id="react">
          <path d="M12.1069 0L12.1069 0L12.1069 10.8325L0 10.8325L0 0L12.1069 0Z" id="react" fill="none" stroke="none" />
        </g>
        <path d="M10.8181 5.64676C10.7028 5.60754 10.5865 5.5712 10.4694 5.53778C10.4891 5.45805 10.5072 5.37928 10.5233 5.3019C10.7872 4.03119 10.6147 3.00747 10.0253 2.67042C9.46015 2.34729 8.53596 2.68422 7.60259 3.48981C7.5106 3.56934 7.42066 3.65117 7.33284 3.73521C7.27404 3.67932 7.21421 3.62452 7.15337 3.57083C6.17517 2.70949 5.19466 2.34646 4.6059 2.68448C4.0413 3.00861 3.87412 3.97097 4.11175 5.17526C4.1354 5.29454 4.16209 5.4132 4.19182 5.53113C4.05303 5.57024 3.9191 5.61187 3.79093 5.65618C2.64404 6.05272 1.91162 6.67417 1.91162 7.31878C1.91162 7.98454 2.69791 8.65232 3.89244 9.05723C3.98928 9.08992 4.08693 9.12021 4.1853 9.14808C4.15335 9.27509 4.12499 9.40296 4.10025 9.53155C3.87369 10.7149 4.05061 11.6546 4.61369 11.9766C5.19526 12.3092 6.17136 11.9674 7.12178 11.1434C7.19885 11.0764 7.27421 11.0076 7.34781 10.9369C7.44291 11.0279 7.54056 11.1162 7.64063 11.2018C8.56131 11.9875 9.47056 12.3047 10.0331 11.9818C10.6141 11.6482 10.803 10.6388 10.5578 9.41072C10.5385 9.31451 10.5168 9.21878 10.4928 9.12361C10.5614 9.10347 10.6287 9.08274 10.6942 9.06117C11.9361 8.65315 12.7441 7.99348 12.7441 7.31882C12.7441 6.67186 11.988 6.04622 10.8181 5.6468L10.8181 5.64676ZM10.5487 8.62555C10.4895 8.64498 10.4287 8.66374 10.3668 8.68199C10.2297 8.25156 10.0447 7.7939 9.81824 7.32101C10.0343 6.85941 10.2122 6.40758 10.3454 5.97997C10.4563 6.01177 10.5638 6.0453 10.6674 6.08068C11.6699 6.42294 12.2813 6.9289 12.2813 7.31879C12.2813 7.73406 11.621 8.27318 10.5487 8.62555L10.5487 8.62555ZM10.1039 9.49983C10.2123 10.0428 10.2278 10.5338 10.156 10.9177C10.0915 11.2626 9.96174 11.4925 9.80128 11.5846C9.45993 11.7806 8.72989 11.5259 7.94254 10.8539C7.84947 10.7743 7.75864 10.6922 7.67017 10.6076C7.97542 10.2765 8.28047 9.89169 8.57819 9.46424C9.10187 9.41817 9.59661 9.3428 10.0453 9.23994C10.0669 9.3261 10.0864 9.41276 10.1039 9.49983L10.1039 9.49983ZM5.60458 11.5507C5.27106 11.6675 5.00541 11.6709 4.84483 11.5791C4.50314 11.3836 4.36109 10.6292 4.55485 9.61716C4.57788 9.49758 4.60425 9.37865 4.63393 9.26051C5.07764 9.35787 5.56879 9.42787 6.09369 9.47008C6.39345 9.88834 6.70729 10.2728 7.02359 10.6094C6.95638 10.6739 6.88757 10.7368 6.81723 10.7979C6.39693 11.1622 5.97577 11.4207 5.60459 11.5507L5.60458 11.5507ZM4.04212 8.62298C3.51391 8.44392 3.0777 8.21123 2.7787 7.95731C2.51001 7.72915 2.37439 7.50258 2.37439 7.31878C2.37439 6.92759 2.96243 6.42864 3.94324 6.08953C4.06227 6.0484 4.18684 6.00958 4.31611 5.97316C4.45168 6.41043 4.62949 6.86762 4.84407 7.32994C4.6267 7.7991 4.44635 8.2636 4.30947 8.70603C4.21968 8.68052 4.13054 8.65283 4.04212 8.62298L4.04212 8.62298ZM4.56596 5.08709C4.36238 4.05532 4.49758 3.27701 4.83783 3.08167C5.20021 2.87361 6.00156 3.17026 6.84619 3.91403C6.90128 3.96264 6.95547 4.01225 7.00874 4.06281C6.69401 4.39797 6.38304 4.77955 6.08595 5.19533C5.57648 5.24217 5.08881 5.31737 4.64045 5.41812C4.61283 5.30844 4.58799 5.19808 4.56598 5.08716L4.56596 5.08709ZM9.23859 6.23136C9.13269 6.04994 9.02286 5.87081 8.90918 5.69409C9.2548 5.73744 9.58595 5.79497 9.89692 5.8653C9.80358 6.16208 9.68721 6.47232 9.55024 6.7904C9.45012 6.60201 9.34621 6.41561 9.23858 6.23134L9.23859 6.23136ZM7.33313 4.39078C7.54657 4.62011 7.76034 4.87613 7.9706 5.15394C7.54408 5.13396 7.11684 5.13388 6.69031 5.15369C6.90078 4.87844 7.11637 4.62276 7.33315 4.39078L7.33313 4.39078ZM5.41536 6.23451C5.30909 6.41729 5.20713 6.60251 5.10957 6.79001C4.97484 6.47306 4.85953 6.16139 4.76538 5.86042C5.07444 5.79185 5.40403 5.73579 5.74745 5.69324C5.63251 5.87103 5.52179 6.05148 5.41538 6.23443L5.41536 6.23451ZM5.75723 8.97694C5.40243 8.93766 5.06789 8.88449 4.75891 8.81777C4.85454 8.51143 4.97239 8.19314 5.11003 7.86938C5.20799 8.05703 5.31037 8.24237 5.41711 8.42524C5.52688 8.61324 5.64053 8.79738 5.75723 8.97695L5.75723 8.97694ZM7.34586 10.2791C7.1265 10.0444 6.90774 9.7848 6.69409 9.50557C6.90152 9.51362 7.11296 9.51774 7.32788 9.51774C7.54867 9.51774 7.76693 9.51283 7.98176 9.50334C7.77082 9.78761 7.55785 10.0476 7.34586 10.2791L7.34586 10.2791ZM9.55457 7.85286C9.69937 8.18018 9.8214 8.4968 9.9183 8.79789C9.60425 8.86898 9.26514 8.92622 8.90784 8.96873C9.02231 8.78875 9.13316 8.60654 9.24033 8.42219C9.3493 8.23478 9.45405 8.04499 9.55451 7.85296L9.55457 7.85286ZM8.83958 8.19281C8.67549 8.4755 8.50217 8.75283 8.31991 9.02435C7.98975 9.04754 7.65886 9.05906 7.32787 9.05889C6.99075 9.05889 6.66286 9.04848 6.34711 9.02817C6.16009 8.75729 5.98347 8.47949 5.81763 8.19536L5.81768 8.19536C5.65261 7.91274 5.49843 7.62399 5.35547 7.32976C5.49806 7.03546 5.65177 6.74659 5.81627 6.46375L5.81623 6.46379C5.98066 6.18088 6.15587 5.90426 6.34147 5.63454C6.66361 5.61037 6.99396 5.59778 7.32782 5.59778L7.3279 5.59778C7.66329 5.59778 7.99406 5.61049 8.31611 5.63483C8.49984 5.90415 8.67393 6.17981 8.83806 6.46131C9.0031 6.74352 9.15884 7.03099 9.30504 7.32325C9.16035 7.61849 9.0051 7.90852 8.83959 8.1928L8.83958 8.19281ZM9.7941 3.06798C10.1568 3.27545 10.2979 4.11209 10.07 5.20924C10.0554 5.27924 10.0391 5.35053 10.0213 5.42284C9.57187 5.31994 9.08385 5.24344 8.57291 5.1959C8.27527 4.77554 7.96684 4.39338 7.65723 4.06253C7.73837 3.98496 7.82145 3.9094 7.90638 3.83592C8.70612 3.14573 9.45356 2.87322 9.79411 3.06797L9.7941 3.06798ZM7.3279 6.35948C7.86212 6.35948 8.29521 6.78898 8.29521 7.31878C8.29521 7.84858 7.86212 8.27808 7.3279 8.27808C6.79368 8.27808 6.3606 7.84858 6.3606 7.31878C6.3606 6.78898 6.79368 6.35948 7.3279 6.35948L7.3279 6.35948Z" id="Shape" fill="#00D8FF" fill-rule="evenodd" stroke="none" />
      </g>
    </g>
    <path d="M5 39L15 39L15 68L5 68L5 39Z" id="guard" fill="#FFFFFF" fill-rule="evenodd" stroke="none" clip-path="url(#clip_1)" />
  </g>
</svg>